<svg xmlns:xlink="http://www.w3.org/1999/xlink" width="34" height="26" viewBox="0 0 364 263" fill="none" xmlns="http://www.w3.org/2000/svg">
  <g filter="url(#filter0_d_4_57)" fill="none">
    <path d="M331.33 137.81C334.98 147.81 340.38 162.65 330.98 136.81C327.64 127.64 328.71 130.6 330.73 136.16C320.965 109.843 308.684 84.5295 294.06 60.57C279 36.16 265.5 22.29 255.85 17.22C255.85 17.22 250.85 13.7 243.61 16.74L243.37 16.83C233.97 20.26 222.24 32.67 208.51 53.74C198.751 68.8972 190.009 84.6852 182.34 101C174.051 83.3258 164.482 66.2805 153.71 50C143.77 35.3 129 15.72 115.3 15.72C114.271 15.7149 113.245 15.8223 112.24 16.04C106.15 17.16 99.69 21.68 92 30.23C85.66 37.23 78.75 46.69 71.46 58.29C56.0576 83.12 43.2056 109.444 33.1 136.86C22.8 165 18 188 18.8 205.13C19.36 217.03 22.98 232.19 36.8 238.51L38.74 239.32L40.54 239.92C42.9855 240.638 45.5213 241.002 48.07 241C59.15 241 70.07 234.38 80.4 221.33C90.55 208.55 100.29 189.47 109.34 164.61C111.39 159 113.34 153.13 115.24 147.09C117.1 153.09 119.07 158.95 121.12 164.58C137.46 209.43 155.62 234.79 175.12 239.98L175.42 240.06C175.8 240.15 176.26 240.27 176.77 240.37L177.1 240.44C178.571 240.722 180.063 240.889 181.56 240.94H181.74C182.39 240.94 183.09 240.94 183.74 240.94H184.6L185.24 240.87L185.97 240.77C186.28 240.77 186.73 240.68 187.27 240.58C187.81 240.48 188.16 240.4 188.67 240.28L188.95 240.21L189.31 240.12C208.88 235.12 227.12 209.69 243.52 164.68C245.45 159.38 247.32 153.84 249.11 148.15C250.9 153.84 252.77 159.37 254.7 164.66C263.7 189.5 273.48 208.58 283.62 221.36C294 234.33 304.88 241 316 241C318.968 240.997 321.915 240.501 324.72 239.53C328.191 238.61 331.427 236.965 334.216 234.703C337.004 232.442 339.283 229.616 340.9 226.41C349.76 209.72 346.55 179.92 331.33 137.81Z" fill="#FFFFFF"></path>
  </g>
  <path d="M187.27 231.45L186.86 231.55L187.27 231.45Z" fill="#F07423"></path>
  <path d="M185.88 231.76C185.54 231.82 185.24 231.85 184.94 231.89C185.26 231.85 185.54 231.82 185.88 231.76Z" fill="#F07423"></path>
  <path d="M184.94 231.89C184.69 231.94 184.46 231.96 184.23 231.99C184.46 232 184.69 231.94 184.94 231.89Z" fill="#F06023"></path>
  <path d="M178.82 231.67C178.44 231.6 178.04 231.49 177.63 231.39C178 231.51 178.44 231.59 178.82 231.67Z" fill="#F06023"></path>
  <path d="M186.86 231.55C186.54 231.63 186.22 231.7 185.86 231.76C186.21 231.7 186.54 231.61 186.86 231.55Z" fill="#F06023"></path>
  <path d="M182.1 232.06C181.056 232.02 180.017 231.903 178.99 231.71C180.015 231.911 181.056 232.028 182.1 232.06Z" fill="#F06023"></path>
  <path d="M183.47 232C183.12 232 182.77 232 182.47 232C182.76 232.07 183.11 232.06 183.47 232Z" fill="#F06023"></path>
  <path d="M114.32 24.73C97.85 27.22 61.29 86 41.63 139.9C20.74 197.28 25.74 225 42.15 231H42.2C58.66 236.93 80.32 218.92 101.2 161.53C106.919 145.657 111.678 129.455 115.45 113.01C113.49 68.85 114.12 24.77 114.32 24.73Z" fill="#F41CB2"></path>
  <path d="M182.57 122.73C161.05 71.54 127.97 21.8 114.32 24.73C115.38 24.56 115.46 67.87 115.47 113.05C119.234 129.486 123.99 145.679 129.71 161.54C146.19 206.78 163.12 227.54 177.63 231.39C177.23 231.27 183 134.76 182.57 122.73Z" fill="#FF912E"></path>
  <path d="M246.63 25.18C231.26 30.79 202.13 76.18 182.57 122.73C182.27 132.28 202.16 211.61 188.76 230.98C188.27 231.15 187.76 231.3 187.31 231.44C201.86 227.72 218.88 207 235.44 161.54C241.008 146.104 245.663 130.353 249.38 114.37C247.07 69.49 247.26 37.7 246.63 25.18Z" fill="#F25511"></path>
  <path d="M251.92 25.14C249.342 54.8121 248.48 84.6084 249.34 114.38C253.072 130.362 257.747 146.11 263.34 161.54C284.22 218.92 305.88 236.93 322.34 230.99C338.76 224.99 343.75 197.26 322.86 139.88C303.86 87.77 269.13 31.21 251.92 25.14Z" fill="#F41CB2"></path>
  <path d="M117.26 25C116.327 24.6857 115.329 24.6135 114.36 24.79C114.145 24.8326 113.935 24.8928 113.73 24.97C103.1 28.97 105.41 69.29 115.54 113.11C125.58 69.25 127.89 28.93 117.26 25Z" fill="#FF912E"></path>
  <path d="M188.72 231C205.17 225 210.16 197.27 189.25 139.89C187.18 134.19 184.93 128.47 182.54 122.75C180.13 128.47 177.86 134.21 175.8 139.9C154.89 197.28 159.89 224.99 176.32 231.01C176.74 231.16 177.17 231.28 177.57 231.4C177.97 231.52 178.38 231.61 178.76 231.68H178.93C179.957 231.873 180.996 231.99 182.04 232.03H182.39C182.71 232.03 183.06 232.03 183.39 232.03H184.15C184.38 232.03 184.61 231.98 184.86 231.93C185.11 231.88 185.46 231.86 185.8 231.8C186.14 231.74 186.46 231.67 186.8 231.59L187.21 231.49C187.69 231.35 188.21 231.2 188.66 231.03L188.72 231Z" fill="#F25511"></path>
  <path d="M251.92 25.14C251.153 24.8607 250.353 24.6826 249.54 24.61C248.545 24.634 247.561 24.8267 246.63 25.18C236.63 30.49 239.14 70.89 249.34 114.38C258.92 73.55 262.78 30.52 251.92 25.14Z" fill="#F41CB2"></path>
  <path d="M251.92 35.81C269.13 41.88 305.04 97.81 324.04 149.94C332.62 173.52 336.66 186.82 336.49 204.42C337.54 189.51 333.66 169.55 322.85 139.87C303.85 87.77 269.13 31.21 251.92 25.14C251.153 24.8607 250.353 24.6826 249.54 24.61C248.545 24.634 247.561 24.8267 246.63 25.18C231.26 30.79 202.13 76.75 182.57 123.32C161.05 72.13 128 21.8 114.32 24.73C97.85 27.22 61.29 86 41.63 139.9C30.83 169.58 27 190.13 28 205C27.84 184.41 31.87 173.51 40.46 149.94C60.1 96 97.85 37.88 114.32 35.39C127.97 32.46 155.38 73.45 182.57 124.51C207.57 77.16 231.26 41.45 246.63 35.85C247.518 35.5152 248.452 35.3228 249.4 35.28" fill="#821414" fill-opacity="0.75"></path>
  <defs>
    <filter id="filter0_d_4_57" x="6.71425" y="6.50299" width="351.066" height="249.497" filterUnits="userSpaceOnUse" color-interpolation-filters="sRGB">
      <feFlood flood-opacity="0" result="BackgroundImageFix"></feFlood>
      <feColorMatrix in="SourceAlpha" type="matrix" values="0 0 0 0 0 0 0 0 0 0 0 0 0 0 0 0 0 0 127 0" result="hardAlpha"></feColorMatrix>
      <feOffset dy="3"></feOffset>
      <feGaussianBlur stdDeviation="6"></feGaussianBlur>
      <feColorMatrix type="matrix" values="0 0 0 0 0 0 0 0 0 0 0 0 0 0 0 0 0 0 0.25 0"></feColorMatrix>
      <feBlend mode="normal" in2="BackgroundImageFix" result="effect1_dropShadow_4_57"></feBlend>
      <feBlend mode="normal" in="SourceGraphic" in2="effect1_dropShadow_4_57" result="shape"></feBlend>
    </filter>
  </defs>
</svg>